<svg width="17" height="17" viewBox="0 0 17 17" fill="none" xmlns="http://www.w3.org/2000/svg">
<g clip-path="url(#clip0_3903_16)">
<path fill-rule="evenodd" clip-rule="evenodd" d="M1.59375 15.1406C1.59375 15.2872 1.71275 15.4062 1.85938 15.4062H4.25V14.0781C4.25 13.8668 4.33396 13.6641 4.4834 13.5146C4.63284 13.3652 4.83553 13.2812 5.04688 13.2812H7.70312C7.91447 13.2812 8.11716 13.3652 8.2666 13.5146C8.41604 13.6641 8.5 13.8668 8.5 14.0781V15.4062H10.8906C10.9611 15.4062 11.0286 15.3783 11.0785 15.3285C11.1283 15.2786 11.1562 15.2111 11.1562 15.1406V1.85938C11.1562 1.78893 11.1283 1.72136 11.0785 1.67155C11.0286 1.62174 10.9611 1.59375 10.8906 1.59375H1.85938C1.78893 1.59375 1.72136 1.62174 1.67155 1.67155C1.62174 1.72136 1.59375 1.78893 1.59375 1.85938V15.1406ZM1.85938 17C1.36624 17 0.893299 16.8041 0.544598 16.4554C0.195898 16.1067 0 15.6338 0 15.1406L0 1.85938C0 0.833 0.833 0 1.85938 0H10.8906C11.917 0 12.75 0.833 12.75 1.85938V15.1406C12.75 15.2309 12.7436 15.3191 12.7309 15.4062H15.1406C15.2111 15.4062 15.2786 15.3783 15.3285 15.3285C15.3783 15.2786 15.4062 15.2111 15.4062 15.1406V8.80281C15.4063 8.75912 15.3955 8.71609 15.375 8.67754C15.3544 8.63899 15.3246 8.60611 15.2883 8.58181L14.1674 7.83488C14.0791 7.77739 14.003 7.70295 13.9436 7.61587C13.8843 7.5288 13.8428 7.43081 13.8216 7.32759C13.8003 7.22437 13.7998 7.11796 13.8199 7.01452C13.8401 6.91108 13.8806 6.81267 13.939 6.72499C13.9975 6.6373 14.0728 6.56208 14.1605 6.50368C14.2482 6.44529 14.3467 6.40487 14.4501 6.38477C14.5536 6.36467 14.66 6.36529 14.7632 6.38659C14.8664 6.40789 14.9643 6.44946 15.0514 6.50887L16.1723 7.25581C16.6897 7.60112 17 8.18125 17 8.80281V15.1406C17 15.6338 16.8041 16.1067 16.4554 16.4554C16.1067 16.8041 15.6338 17 15.1406 17H11.4219C11.3512 17.0001 11.2808 16.9908 11.2126 16.9724C11.1074 16.9904 11.0001 17 10.8906 17H7.70312C7.49178 17 7.28909 16.916 7.13965 16.7666C6.99021 16.6172 6.90625 16.4145 6.90625 16.2031V14.875H5.84375V16.2031C5.84375 16.4145 5.75979 16.6172 5.61035 16.7666C5.46091 16.916 5.25822 17 5.04688 17H1.85938ZM3.1875 3.98438C3.1875 3.77303 3.27146 3.57034 3.4209 3.4209C3.57034 3.27146 3.77303 3.1875 3.98438 3.1875H4.51562C4.72697 3.1875 4.92966 3.27146 5.0791 3.4209C5.22854 3.57034 5.3125 3.77303 5.3125 3.98438C5.3125 4.19572 5.22854 4.39841 5.0791 4.54785C4.92966 4.69729 4.72697 4.78125 4.51562 4.78125H3.98438C3.77303 4.78125 3.57034 4.69729 3.4209 4.54785C3.27146 4.39841 3.1875 4.19572 3.1875 3.98438ZM3.98438 6.375C3.77303 6.375 3.57034 6.45896 3.4209 6.6084C3.27146 6.75784 3.1875 6.96053 3.1875 7.17188C3.1875 7.38322 3.27146 7.58591 3.4209 7.73535C3.57034 7.88479 3.77303 7.96875 3.98438 7.96875H4.51562C4.72697 7.96875 4.92966 7.88479 5.0791 7.73535C5.22854 7.58591 5.3125 7.38322 5.3125 7.17188C5.3125 6.96053 5.22854 6.75784 5.0791 6.6084C4.92966 6.45896 4.72697 6.375 4.51562 6.375H3.98438ZM3.1875 10.3594C3.1875 10.148 3.27146 9.94534 3.4209 9.7959C3.57034 9.64646 3.77303 9.5625 3.98438 9.5625H4.51562C4.72697 9.5625 4.92966 9.64646 5.0791 9.7959C5.22854 9.94534 5.3125 10.148 5.3125 10.3594C5.3125 10.5707 5.22854 10.7734 5.0791 10.9229C4.92966 11.0723 4.72697 11.1562 4.51562 11.1562H3.98438C3.77303 11.1562 3.57034 11.0723 3.4209 10.9229C3.27146 10.7734 3.1875 10.5707 3.1875 10.3594ZM8.23438 9.5625C8.02303 9.5625 7.82034 9.64646 7.6709 9.7959C7.52146 9.94534 7.4375 10.148 7.4375 10.3594C7.4375 10.5707 7.52146 10.7734 7.6709 10.9229C7.82034 11.0723 8.02303 11.1562 8.23438 11.1562H8.76562C8.97697 11.1562 9.17966 11.0723 9.3291 10.9229C9.47854 10.7734 9.5625 10.5707 9.5625 10.3594C9.5625 10.148 9.47854 9.94534 9.3291 9.7959C9.17966 9.64646 8.97697 9.5625 8.76562 9.5625H8.23438ZM7.4375 7.17188C7.4375 6.96053 7.52146 6.75784 7.6709 6.6084C7.82034 6.45896 8.02303 6.375 8.23438 6.375H8.76562C8.97697 6.375 9.17966 6.45896 9.3291 6.6084C9.47854 6.75784 9.5625 6.96053 9.5625 7.17188C9.5625 7.38322 9.47854 7.58591 9.3291 7.73535C9.17966 7.88479 8.97697 7.96875 8.76562 7.96875H8.23438C8.02303 7.96875 7.82034 7.88479 7.6709 7.73535C7.52146 7.58591 7.4375 7.38322 7.4375 7.17188ZM8.23438 3.1875C8.02303 3.1875 7.82034 3.27146 7.6709 3.4209C7.52146 3.57034 7.4375 3.77303 7.4375 3.98438C7.4375 4.19572 7.52146 4.39841 7.6709 4.54785C7.82034 4.69729 8.02303 4.78125 8.23438 4.78125H8.76562C8.97697 4.78125 9.17966 4.69729 9.3291 4.54785C9.47854 4.39841 9.5625 4.19572 9.5625 3.98438C9.5625 3.77303 9.47854 3.57034 9.3291 3.4209C9.17966 3.27146 8.97697 3.1875 8.76562 3.1875H8.23438Z" fill="#8B949E"/>
</g>
<rect x="0.5" y="0.5" width="16" height="16" stroke="black"/>
<defs>
<clipPath id="clip0_3903_16">
<rect width="17" height="17" fill="white"/>
</clipPath>
</defs>
</svg>
