<svg width="17" height="17" viewBox="0 0 17 17" fill="none" xmlns="http://www.w3.org/2000/svg">
<path fill-rule="evenodd" clip-rule="evenodd" d="M13.124 3.34358C13.7313 3.86728 14.2131 4.48905 14.5418 5.17337C14.8705 5.85769 15.0397 6.59116 15.0397 7.33188C15.0397 8.0726 14.8705 8.80607 14.5418 9.49039C14.2131 10.1747 13.7313 10.7965 13.124 11.3202L8.5 15.3062L3.876 11.3191C3.26877 10.7953 2.78709 10.1735 2.45846 9.48921C2.12982 8.80489 1.96068 8.07145 1.96068 7.33075C1.96068 6.59006 2.12982 5.85661 2.45846 5.1723C2.78709 4.48798 3.26877 3.8662 3.876 3.34245C4.48323 2.8187 5.20412 2.40323 5.99751 2.11978C6.7909 1.83633 7.64124 1.69044 8.5 1.69044C9.35876 1.69044 10.2091 1.83633 11.0025 2.11978C11.7959 2.40323 12.5168 2.8187 13.124 3.34245V3.34358ZM14.5101 12.5158C15.699 11.4905 16.5086 10.1841 16.8366 8.76196C17.1646 7.33979 16.9964 5.86565 16.353 4.52596C15.7097 3.18628 14.6203 2.04123 13.2224 1.23561C11.8246 0.429997 10.1812 0 8.5 0C6.81883 0 5.17541 0.429997 3.77758 1.23561C2.37975 2.04123 1.29028 3.18628 0.646959 4.52596C0.00363525 5.86565 -0.164651 7.33979 0.163381 8.76196C0.491414 10.1841 1.30103 11.4905 2.48985 12.5158L7.11254 16.5041C7.2947 16.6613 7.51099 16.786 7.74906 16.8711C7.98713 16.9562 8.2423 17 8.5 17C8.7577 17 9.01287 16.9562 9.25094 16.8711C9.48901 16.786 9.7053 16.6613 9.88746 16.5041L14.5101 12.5158ZM8.5 9.58771C9.19364 9.58771 9.85888 9.35004 10.3494 8.92699C10.8398 8.50394 11.1154 7.93016 11.1154 7.33188C11.1154 6.7336 10.8398 6.15982 10.3494 5.73677C9.85888 5.31372 9.19364 5.07605 8.5 5.07605C7.80636 5.07605 7.14112 5.31372 6.65064 5.73677C6.16016 6.15982 5.88462 6.7336 5.88462 7.33188C5.88462 7.93016 6.16016 8.50394 6.65064 8.92699C7.14112 9.35004 7.80636 9.58771 8.5 9.58771Z" fill="#8B949E"/>
</svg>
